<svg width="110" height="34" viewBox="0 0 110 34" fill="none" xmlns="http://www.w3.org/2000/svg">
<path d="M0.841481 18.9867C0.841481 14.9624 3.20274 12.0897 7.10859 12.0897C8.91671 12.0897 10.5187 12.8462 11.3302 14.1279V5.94922H14.5028V25.3872H11.5649L11.3562 23.375C10.5683 24.8646 8.89062 25.7277 6.92335 25.7277C3.17404 25.7277 0.838867 22.9851 0.838867 18.9867H0.841481ZM11.304 18.8827C11.304 16.556 9.86121 14.9364 7.63302 14.9364C5.40483 14.9364 4.04026 16.582 4.04026 18.8827C4.04026 21.1809 5.40483 22.8005 7.63302 22.8005C9.86121 22.8005 11.304 21.2069 11.304 18.8827Z" fill="white"/>
<path d="M16.0342 21.7034C16.0342 19.3247 17.764 17.8377 20.8324 17.6011L24.7121 17.3125V17.0266C24.7121 15.277 23.6633 14.5698 22.0378 14.5698C20.1488 14.5698 19.0999 15.355 19.0999 16.712H16.3734C16.3734 13.9173 18.6798 12.0871 22.1943 12.0871C25.6827 12.0871 27.8327 13.9693 27.8327 17.5465V25.3846H25.0278L24.793 23.4764C24.2425 24.8101 22.4865 25.7226 20.4671 25.7226C17.7145 25.7226 16.0368 24.1289 16.0368 21.6982L16.0342 21.7034ZM24.7408 20.1618V19.4833L22.0404 19.6913C20.047 19.8732 19.2878 20.5284 19.2878 21.5734C19.2878 22.7485 20.0731 23.323 21.516 23.323C23.4832 23.323 24.7408 22.148 24.7408 20.1618Z" fill="white"/>
<path d="M31.3984 25.3874V15.1446H28.9067V12.4799H31.3984V8.45552H34.5972V12.4799H37.115V15.1446H34.5972V25.3874H31.3984Z" fill="white"/>
<path d="M38.1382 21.7033C38.1382 19.3246 39.868 17.8375 42.9363 17.601L46.8161 17.3124V17.0264C46.8161 15.2768 45.7672 14.5697 44.1417 14.5697C42.2527 14.5697 41.2039 15.3548 41.2039 16.7119H38.4773C38.4773 13.9172 40.7838 12.087 44.2983 12.087C47.7867 12.087 49.9366 13.9692 49.9366 17.5464V25.3845H47.1318L46.8969 23.4763C46.3464 24.8099 44.5905 25.7224 42.571 25.7224C39.8184 25.7224 38.1408 24.1288 38.1408 21.6981L38.1382 21.7033ZM46.8448 20.1617V19.4832L44.1443 19.6911C42.1509 19.8731 41.3917 20.5282 41.3917 21.5733C41.3917 22.7484 42.1771 23.3229 43.6199 23.3229C45.5872 23.3229 46.8448 22.1478 46.8448 20.1617Z" fill="white"/>
<path d="M57.8179 12.0896C59.7591 12.0896 61.2802 12.9007 62.0395 14.2838L62.2221 12.5082H65.1861V24.7632C65.1861 29.0735 62.59 31.7642 58.3946 31.7642C54.6714 31.7642 52.1275 29.648 51.7335 26.1982H54.9323C55.141 27.8698 56.4273 28.8629 58.3946 28.8629C60.5967 28.8629 62.0134 27.4773 62.0134 25.3351V23.1929C61.1994 24.394 59.6 25.1531 57.7397 25.1531C54.0686 25.1531 51.6552 22.4104 51.6552 18.6747C51.6552 14.9129 54.1208 12.0896 57.8179 12.0896ZM58.3684 22.3844C60.5705 22.3844 61.9351 20.8428 61.9351 18.5967C61.9351 16.4025 60.5966 14.8869 58.3684 14.8869C56.1403 14.8869 54.8801 16.4805 54.8801 18.5967C54.8801 20.7128 56.2707 22.3844 58.3684 22.3844Z" fill="white"/>
<path d="M74.0066 15.3808C71.7001 15.3808 70.2573 16.6079 70.2573 19.1166V25.3871H67.0585V12.5056H70.0746L70.2573 14.3877C70.8078 13.1087 72.0393 12.2456 73.7718 12.2456C74.2179 12.2456 74.6641 12.2976 75.1885 12.4276V15.3808H74.0066Z" fill="white"/>
<path d="M76.2084 21.7033C76.2084 19.3246 77.9383 17.8375 81.0066 17.601L84.8864 17.3124V17.0264C84.8864 15.2768 83.8375 14.5697 82.212 14.5697C80.323 14.5697 79.2741 15.3548 79.2741 16.7119H76.5476C76.5476 13.9172 78.8541 12.087 82.3686 12.087C85.8569 12.087 88.0069 13.9692 88.0069 17.5464V25.3845H85.2021L84.9673 23.4763C84.4167 24.8099 82.6608 25.7224 80.6413 25.7224C77.8887 25.7224 76.211 24.1288 76.211 21.6981L76.2084 21.7033ZM84.915 20.1617V19.4832L82.2146 19.6911C80.2212 19.8731 79.462 20.5282 79.462 21.5733C79.462 22.7484 80.2499 23.3229 81.6902 23.3229C83.6575 23.3229 84.915 22.1478 84.915 20.1617Z" fill="white"/>
<path d="M89.8807 25.3871V12.4796H92.8185L93.0821 13.9952C93.737 12.9241 95.0494 12.087 96.9097 12.087C98.8769 12.087 100.239 13.0541 100.922 14.5437C101.577 13.0541 103.098 12.087 105.066 12.087C108.212 12.087 109.942 13.9692 109.942 16.9458V25.3845H106.769V17.7803C106.769 15.9242 105.773 14.9571 104.252 14.9571C102.731 14.9571 101.525 15.9502 101.525 18.0663V25.3819H98.3264V17.7517C98.3264 15.9502 97.3558 14.9831 95.8347 14.9831C94.3136 14.9831 93.0821 15.9762 93.0821 18.0663V25.3819H89.8833L89.8807 25.3871Z" fill="white"/>
</svg>
