<svg width="33" height="36" viewBox="0 0 33 36" fill="none" xmlns="http://www.w3.org/2000/svg">
<path d="M14.8239 0.289189C14.5857 0.283472 14.3907 0.472141 14.3907 0.712261V8.73055C14.3907 8.95637 14.5714 9.14218 14.798 9.15076C19.5117 9.36229 23.2786 13.25 23.2786 17.998C23.2786 22.7461 19.701 26.4308 15.1595 26.8224C14.7464 26.8567 14.3907 26.5337 14.3907 26.1192V15.251C14.3907 13.8331 13.2374 12.6839 11.8144 12.6839H2.74283C1.31984 12.6839 0.166504 13.8331 0.166504 15.251V24.2898C0.166504 25.7076 1.31984 26.8567 2.74283 26.8567H13.682C14.0722 26.8567 14.3907 27.1712 14.3907 27.56V35.2838C14.3907 35.5211 14.5857 35.7126 14.8239 35.7069C24.4262 35.4753 32.1665 27.62 32.1665 17.998C32.1665 8.37609 24.4262 0.520733 14.8239 0.289189Z" fill="white"/>
</svg>
